<mxfile host="app.diagrams.net" modified="2024-02-15T22:32:46.088Z" agent="Mozilla/5.0 (Windows NT 10.0; Win64; x64) AppleWebKit/537.36 (KHTML, like Gecko) Chrome/121.0.0.0 Safari/537.36" etag="n_WwIuuHPim8uXmcABFj" version="23.1.4" type="github">
  <diagram name="Page-1" id="ezRgYsWMNisB0iaWyQ6a">
    <mxGraphModel dx="3524" dy="2454" grid="1" gridSize="10" guides="1" tooltips="1" connect="1" arrows="1" fold="1" page="1" pageScale="1" pageWidth="850" pageHeight="1100" math="0" shadow="0">
      <root>
        <mxCell id="0" />
        <mxCell id="1" parent="0" />
        <mxCell id="ZLCHrO8xHaeZ08uBN5op-88" value="" style="rounded=0;whiteSpace=wrap;html=1;fillColor=#EADAFA;strokeColor=#000000;" parent="1" vertex="1">
          <mxGeometry x="-300" y="-10" width="1990" height="1140" as="geometry" />
        </mxCell>
        <mxCell id="ZLCHrO8xHaeZ08uBN5op-122" value="" style="edgeStyle=orthogonalEdgeStyle;rounded=0;orthogonalLoop=1;jettySize=auto;html=1;fillColor=#dae8fc;strokeColor=#000000;fontColor=#FFFFFF;" parent="1" source="ZLCHrO8xHaeZ08uBN5op-1" target="ZLCHrO8xHaeZ08uBN5op-121" edge="1">
          <mxGeometry relative="1" as="geometry" />
        </mxCell>
        <mxCell id="ZLCHrO8xHaeZ08uBN5op-1" value="Onboarding" style="rounded=0;whiteSpace=wrap;html=1;fillColor=#000000;strokeColor=#000000;fontColor=#FFFFFF;" parent="1" vertex="1">
          <mxGeometry x="-100" y="400" width="120" height="60" as="geometry" />
        </mxCell>
        <mxCell id="ZLCHrO8xHaeZ08uBN5op-12" value="" style="edgeStyle=orthogonalEdgeStyle;rounded=0;orthogonalLoop=1;jettySize=auto;html=1;entryX=0;entryY=0.5;entryDx=0;entryDy=0;fillColor=#dae8fc;strokeColor=#000000;fontColor=#FFFFFF;" parent="1" source="ZLCHrO8xHaeZ08uBN5op-4" target="ZLCHrO8xHaeZ08uBN5op-8" edge="1">
          <mxGeometry relative="1" as="geometry" />
        </mxCell>
        <mxCell id="ZLCHrO8xHaeZ08uBN5op-4" value="Email / O AUTH&amp;nbsp;" style="rounded=1;whiteSpace=wrap;html=1;fillColor=#000000;strokeColor=#000000;fontColor=#FFFFFF;" parent="1" vertex="1">
          <mxGeometry x="280" y="410" width="120" height="40" as="geometry" />
        </mxCell>
        <mxCell id="ZLCHrO8xHaeZ08uBN5op-13" value="" style="edgeStyle=orthogonalEdgeStyle;rounded=0;orthogonalLoop=1;jettySize=auto;html=1;entryX=0;entryY=0.5;entryDx=0;entryDy=0;fillColor=#dae8fc;strokeColor=#000000;fontColor=#FFFFFF;" parent="1" source="ZLCHrO8xHaeZ08uBN5op-5" target="ZLCHrO8xHaeZ08uBN5op-8" edge="1">
          <mxGeometry relative="1" as="geometry" />
        </mxCell>
        <mxCell id="ZLCHrO8xHaeZ08uBN5op-5" value="Biomatric Auth" style="rounded=1;whiteSpace=wrap;html=1;fillColor=#000000;strokeColor=#000000;fontColor=#FFFFFF;" parent="1" vertex="1">
          <mxGeometry x="280" y="360" width="120" height="40" as="geometry" />
        </mxCell>
        <mxCell id="ZLCHrO8xHaeZ08uBN5op-14" value="" style="edgeStyle=orthogonalEdgeStyle;rounded=0;orthogonalLoop=1;jettySize=auto;html=1;fillColor=#dae8fc;strokeColor=#000000;fontColor=#FFFFFF;" parent="1" source="ZLCHrO8xHaeZ08uBN5op-8" target="ZLCHrO8xHaeZ08uBN5op-9" edge="1">
          <mxGeometry relative="1" as="geometry" />
        </mxCell>
        <mxCell id="ZLCHrO8xHaeZ08uBN5op-8" value="OTP" style="rounded=1;whiteSpace=wrap;html=1;fillColor=#000000;strokeColor=#000000;fontColor=#FFFFFF;" parent="1" vertex="1">
          <mxGeometry x="470" y="400" width="120" height="60" as="geometry" />
        </mxCell>
        <mxCell id="ZLCHrO8xHaeZ08uBN5op-33" value="" style="edgeStyle=orthogonalEdgeStyle;rounded=0;orthogonalLoop=1;jettySize=auto;html=1;fillColor=#dae8fc;strokeColor=#000000;fontColor=#FFFFFF;" parent="1" source="ZLCHrO8xHaeZ08uBN5op-9" target="ZLCHrO8xHaeZ08uBN5op-32" edge="1">
          <mxGeometry relative="1" as="geometry" />
        </mxCell>
        <mxCell id="ZLCHrO8xHaeZ08uBN5op-40" value="" style="edgeStyle=orthogonalEdgeStyle;rounded=0;orthogonalLoop=1;jettySize=auto;html=1;startArrow=classic;startFill=1;fillColor=#dae8fc;strokeColor=#000000;fontColor=#FFFFFF;" parent="1" source="ZLCHrO8xHaeZ08uBN5op-9" target="ZLCHrO8xHaeZ08uBN5op-35" edge="1">
          <mxGeometry relative="1" as="geometry" />
        </mxCell>
        <mxCell id="ZLCHrO8xHaeZ08uBN5op-9" value="Wallet&#xa;creation" style="ellipse;whiteSpace=wrap;html=1;aspect=fixed;fillColor=#000000;strokeColor=#000000;fontColor=#FFFFFF;" parent="1" vertex="1">
          <mxGeometry x="660" y="390" width="80" height="80" as="geometry" />
        </mxCell>
        <mxCell id="ZLCHrO8xHaeZ08uBN5op-19" value="" style="edgeStyle=orthogonalEdgeStyle;rounded=0;orthogonalLoop=1;jettySize=auto;html=1;entryX=0.5;entryY=1;entryDx=0;entryDy=0;fillColor=#dae8fc;strokeColor=#000000;fontColor=#FFFFFF;" parent="1" source="ZLCHrO8xHaeZ08uBN5op-15" target="ZLCHrO8xHaeZ08uBN5op-17" edge="1">
          <mxGeometry relative="1" as="geometry" />
        </mxCell>
        <mxCell id="ZLCHrO8xHaeZ08uBN5op-39" value="" style="edgeStyle=orthogonalEdgeStyle;rounded=0;orthogonalLoop=1;jettySize=auto;html=1;entryX=0.5;entryY=1;entryDx=0;entryDy=0;fillColor=#dae8fc;strokeColor=#000000;fontColor=#FFFFFF;" parent="1" source="ZLCHrO8xHaeZ08uBN5op-15" target="ZLCHrO8xHaeZ08uBN5op-16" edge="1">
          <mxGeometry relative="1" as="geometry" />
        </mxCell>
        <mxCell id="ZLCHrO8xHaeZ08uBN5op-15" value="Blockdeamon&#xa;MPC&amp;nbsp;" style="rounded=1;whiteSpace=wrap;html=1;fillColor=#000000;strokeColor=#000000;fontColor=#FFFFFF;" parent="1" vertex="1">
          <mxGeometry x="640" y="200" width="120" height="60" as="geometry" />
        </mxCell>
        <mxCell id="ZLCHrO8xHaeZ08uBN5op-23" value="" style="edgeStyle=orthogonalEdgeStyle;rounded=0;orthogonalLoop=1;jettySize=auto;html=1;startArrow=classic;startFill=1;fillColor=#dae8fc;strokeColor=#000000;fontColor=#FFFFFF;" parent="1" source="ZLCHrO8xHaeZ08uBN5op-16" target="ZLCHrO8xHaeZ08uBN5op-22" edge="1">
          <mxGeometry relative="1" as="geometry" />
        </mxCell>
        <mxCell id="ZLCHrO8xHaeZ08uBN5op-16" value="MPC node" style="whiteSpace=wrap;html=1;aspect=fixed;fillColor=#000000;strokeColor=#000000;fontColor=#FFFFFF;" parent="1" vertex="1">
          <mxGeometry x="600" y="60" width="80" height="80" as="geometry" />
        </mxCell>
        <mxCell id="ZLCHrO8xHaeZ08uBN5op-21" value="" style="edgeStyle=orthogonalEdgeStyle;rounded=0;orthogonalLoop=1;jettySize=auto;html=1;startArrow=classic;startFill=1;fillColor=#dae8fc;strokeColor=#000000;fontColor=#FFFFFF;" parent="1" source="ZLCHrO8xHaeZ08uBN5op-17" target="ZLCHrO8xHaeZ08uBN5op-20" edge="1">
          <mxGeometry relative="1" as="geometry" />
        </mxCell>
        <mxCell id="ZLCHrO8xHaeZ08uBN5op-17" value="MPC node" style="whiteSpace=wrap;html=1;aspect=fixed;fillColor=#000000;strokeColor=#000000;fontColor=#FFFFFF;" parent="1" vertex="1">
          <mxGeometry x="720" y="60" width="80" height="80" as="geometry" />
        </mxCell>
        <mxCell id="ZLCHrO8xHaeZ08uBN5op-20" value="User Device" style="whiteSpace=wrap;html=1;fillColor=#000000;strokeColor=#000000;fontColor=#FFFFFF;" parent="1" vertex="1">
          <mxGeometry x="830" y="70" width="120" height="60" as="geometry" />
        </mxCell>
        <mxCell id="ZLCHrO8xHaeZ08uBN5op-22" value="Defi server" style="whiteSpace=wrap;html=1;fillColor=#000000;strokeColor=#000000;fontColor=#FFFFFF;" parent="1" vertex="1">
          <mxGeometry x="440" y="70" width="120" height="60" as="geometry" />
        </mxCell>
        <mxCell id="ZLCHrO8xHaeZ08uBN5op-30" value="" style="edgeStyle=orthogonalEdgeStyle;rounded=0;orthogonalLoop=1;jettySize=auto;html=1;fillColor=#dae8fc;strokeColor=#000000;fontColor=#FFFFFF;" parent="1" source="ZLCHrO8xHaeZ08uBN5op-25" target="ZLCHrO8xHaeZ08uBN5op-26" edge="1">
          <mxGeometry relative="1" as="geometry" />
        </mxCell>
        <mxCell id="ZLCHrO8xHaeZ08uBN5op-25" value="Login" style="rounded=0;whiteSpace=wrap;html=1;fillColor=#000000;strokeColor=#000000;fontColor=#FFFFFF;" parent="1" vertex="1">
          <mxGeometry x="110" y="742" width="120" height="60" as="geometry" />
        </mxCell>
        <mxCell id="ZLCHrO8xHaeZ08uBN5op-29" value="" style="edgeStyle=orthogonalEdgeStyle;rounded=0;orthogonalLoop=1;jettySize=auto;html=1;fillColor=#dae8fc;strokeColor=#000000;fontColor=#FFFFFF;" parent="1" source="ZLCHrO8xHaeZ08uBN5op-26" target="ZLCHrO8xHaeZ08uBN5op-27" edge="1">
          <mxGeometry relative="1" as="geometry" />
        </mxCell>
        <mxCell id="ZLCHrO8xHaeZ08uBN5op-26" value="Biomatric Auth" style="rounded=1;whiteSpace=wrap;html=1;fillColor=#000000;strokeColor=#000000;fontColor=#FFFFFF;" parent="1" vertex="1">
          <mxGeometry x="280" y="742" width="120" height="60" as="geometry" />
        </mxCell>
        <mxCell id="ZLCHrO8xHaeZ08uBN5op-60" value="" style="edgeStyle=orthogonalEdgeStyle;rounded=0;orthogonalLoop=1;jettySize=auto;html=1;fillColor=#dae8fc;strokeColor=#000000;fontColor=#FFFFFF;" parent="1" source="ZLCHrO8xHaeZ08uBN5op-27" target="ZLCHrO8xHaeZ08uBN5op-59" edge="1">
          <mxGeometry relative="1" as="geometry" />
        </mxCell>
        <mxCell id="ZLCHrO8xHaeZ08uBN5op-27" value="Wallet / Account" style="rounded=1;whiteSpace=wrap;html=1;fillColor=#000000;strokeColor=#000000;fontColor=#FFFFFF;" parent="1" vertex="1">
          <mxGeometry x="640" y="742" width="120" height="60" as="geometry" />
        </mxCell>
        <mxCell id="ZLCHrO8xHaeZ08uBN5op-87" value="" style="edgeStyle=orthogonalEdgeStyle;rounded=0;orthogonalLoop=1;jettySize=auto;html=1;fillColor=#dae8fc;strokeColor=#000000;fontColor=#FFFFFF;" parent="1" source="ZLCHrO8xHaeZ08uBN5op-32" target="ZLCHrO8xHaeZ08uBN5op-27" edge="1">
          <mxGeometry relative="1" as="geometry" />
        </mxCell>
        <mxCell id="ZLCHrO8xHaeZ08uBN5op-102" value="" style="edgeStyle=orthogonalEdgeStyle;rounded=0;orthogonalLoop=1;jettySize=auto;html=1;startArrow=classic;startFill=1;fillColor=#dae8fc;strokeColor=#000000;fontColor=#FFFFFF;" parent="1" source="ZLCHrO8xHaeZ08uBN5op-32" target="ZLCHrO8xHaeZ08uBN5op-101" edge="1">
          <mxGeometry relative="1" as="geometry" />
        </mxCell>
        <mxCell id="ZLCHrO8xHaeZ08uBN5op-32" value="Naming Service UPM" style="rounded=0;whiteSpace=wrap;html=1;fillColor=#000000;strokeColor=#000000;fontColor=#FFFFFF;" parent="1" vertex="1">
          <mxGeometry x="625" y="490" width="150" height="60" as="geometry" />
        </mxCell>
        <mxCell id="ZLCHrO8xHaeZ08uBN5op-36" value="" style="edgeStyle=orthogonalEdgeStyle;rounded=0;orthogonalLoop=1;jettySize=auto;html=1;fillColor=#dae8fc;strokeColor=#000000;fontColor=#FFFFFF;" parent="1" source="ZLCHrO8xHaeZ08uBN5op-35" edge="1">
          <mxGeometry relative="1" as="geometry">
            <mxPoint x="700" y="260" as="targetPoint" />
          </mxGeometry>
        </mxCell>
        <mxCell id="ZLCHrO8xHaeZ08uBN5op-54" value="" style="edgeStyle=orthogonalEdgeStyle;rounded=0;orthogonalLoop=1;jettySize=auto;html=1;startArrow=classic;startFill=1;fillColor=#dae8fc;strokeColor=#000000;fontColor=#FFFFFF;" parent="1" source="ZLCHrO8xHaeZ08uBN5op-35" target="ZLCHrO8xHaeZ08uBN5op-52" edge="1">
          <mxGeometry relative="1" as="geometry" />
        </mxCell>
        <mxCell id="ZLCHrO8xHaeZ08uBN5op-55" value="" style="edgeStyle=orthogonalEdgeStyle;rounded=0;orthogonalLoop=1;jettySize=auto;html=1;fillColor=#dae8fc;strokeColor=#000000;fontColor=#FFFFFF;" parent="1" source="ZLCHrO8xHaeZ08uBN5op-35" target="ZLCHrO8xHaeZ08uBN5op-53" edge="1">
          <mxGeometry relative="1" as="geometry" />
        </mxCell>
        <mxCell id="ZLCHrO8xHaeZ08uBN5op-57" value="" style="edgeStyle=orthogonalEdgeStyle;rounded=0;orthogonalLoop=1;jettySize=auto;html=1;fillColor=#dae8fc;strokeColor=#000000;fontColor=#FFFFFF;" parent="1" source="ZLCHrO8xHaeZ08uBN5op-35" target="ZLCHrO8xHaeZ08uBN5op-56" edge="1">
          <mxGeometry relative="1" as="geometry" />
        </mxCell>
        <mxCell id="ZLCHrO8xHaeZ08uBN5op-35" value="Account Abstraction" style="rounded=0;whiteSpace=wrap;html=1;fillColor=#000000;strokeColor=#000000;fontColor=#FFFFFF;" parent="1" vertex="1">
          <mxGeometry x="625" y="290" width="150" height="60" as="geometry" />
        </mxCell>
        <mxCell id="ZLCHrO8xHaeZ08uBN5op-41" value="&lt;h1&gt;Defi.com Abstraction&lt;/h1&gt;" style="text;html=1;spacing=5;spacingTop=-20;whiteSpace=wrap;overflow=hidden;rounded=0;strokeColor=none;" parent="1" vertex="1">
          <mxGeometry x="-270" y="50" width="190" height="70" as="geometry" />
        </mxCell>
        <mxCell id="ZLCHrO8xHaeZ08uBN5op-64" value="" style="edgeStyle=orthogonalEdgeStyle;rounded=0;orthogonalLoop=1;jettySize=auto;html=1;fillColor=#dae8fc;strokeColor=#000000;fontColor=#FFFFFF;" parent="1" source="ZLCHrO8xHaeZ08uBN5op-43" target="ZLCHrO8xHaeZ08uBN5op-63" edge="1">
          <mxGeometry relative="1" as="geometry" />
        </mxCell>
        <mxCell id="ZLCHrO8xHaeZ08uBN5op-66" value="" style="edgeStyle=orthogonalEdgeStyle;rounded=0;orthogonalLoop=1;jettySize=auto;html=1;entryX=0;entryY=0.5;entryDx=0;entryDy=0;startArrow=classic;startFill=1;fillColor=#dae8fc;strokeColor=#000000;fontColor=#FFFFFF;" parent="1" source="ZLCHrO8xHaeZ08uBN5op-43" target="ZLCHrO8xHaeZ08uBN5op-65" edge="1">
          <mxGeometry relative="1" as="geometry" />
        </mxCell>
        <mxCell id="ZLCHrO8xHaeZ08uBN5op-43" value="Gas Relayer EVM" style="rounded=0;whiteSpace=wrap;html=1;fillColor=#000000;strokeColor=#000000;fontColor=#FFFFFF;" parent="1" vertex="1">
          <mxGeometry x="810" y="370" width="150" height="40" as="geometry" />
        </mxCell>
        <mxCell id="ZLCHrO8xHaeZ08uBN5op-47" value="" style="edgeStyle=orthogonalEdgeStyle;rounded=0;orthogonalLoop=1;jettySize=auto;html=1;entryX=0;entryY=0.5;entryDx=0;entryDy=0;fillColor=#dae8fc;strokeColor=#000000;fontColor=#FFFFFF;" parent="1" source="ZLCHrO8xHaeZ08uBN5op-45" target="ZLCHrO8xHaeZ08uBN5op-8" edge="1">
          <mxGeometry relative="1" as="geometry" />
        </mxCell>
        <mxCell id="ZLCHrO8xHaeZ08uBN5op-45" value="SMS BOT" style="rounded=1;whiteSpace=wrap;html=1;fillColor=#000000;strokeColor=#000000;fontColor=#FFFFFF;" parent="1" vertex="1">
          <mxGeometry x="280" y="460" width="120" height="40" as="geometry" />
        </mxCell>
        <mxCell id="ZLCHrO8xHaeZ08uBN5op-52" value="EVM" style="shape=process;whiteSpace=wrap;html=1;backgroundOutline=1;fillColor=#000000;strokeColor=#000000;fontColor=#FFFFFF;" parent="1" vertex="1">
          <mxGeometry x="465" y="275" width="120" height="40" as="geometry" />
        </mxCell>
        <mxCell id="ZLCHrO8xHaeZ08uBN5op-53" value="Solana" style="shape=process;whiteSpace=wrap;html=1;backgroundOutline=1;fillColor=#000000;strokeColor=#000000;fontColor=#FFFFFF;" parent="1" vertex="1">
          <mxGeometry x="465" y="325" width="120" height="40" as="geometry" />
        </mxCell>
        <mxCell id="ZLCHrO8xHaeZ08uBN5op-58" value="" style="edgeStyle=orthogonalEdgeStyle;rounded=0;orthogonalLoop=1;jettySize=auto;html=1;fillColor=#dae8fc;strokeColor=#000000;fontColor=#FFFFFF;" parent="1" source="ZLCHrO8xHaeZ08uBN5op-56" target="ZLCHrO8xHaeZ08uBN5op-43" edge="1">
          <mxGeometry relative="1" as="geometry" />
        </mxCell>
        <mxCell id="ZLCHrO8xHaeZ08uBN5op-56" value="Signed Transaction" style="rounded=0;whiteSpace=wrap;html=1;fillColor=#000000;strokeColor=#000000;fontColor=#FFFFFF;" parent="1" vertex="1">
          <mxGeometry x="810" y="290" width="150" height="60" as="geometry" />
        </mxCell>
        <mxCell id="ZLCHrO8xHaeZ08uBN5op-62" value="" style="edgeStyle=orthogonalEdgeStyle;rounded=0;orthogonalLoop=1;jettySize=auto;html=1;fillColor=#dae8fc;strokeColor=#000000;fontColor=#FFFFFF;" parent="1" source="ZLCHrO8xHaeZ08uBN5op-59" target="ZLCHrO8xHaeZ08uBN5op-61" edge="1">
          <mxGeometry relative="1" as="geometry" />
        </mxCell>
        <mxCell id="ZLCHrO8xHaeZ08uBN5op-69" value="" style="edgeStyle=orthogonalEdgeStyle;rounded=0;orthogonalLoop=1;jettySize=auto;html=1;fillColor=#dae8fc;strokeColor=#000000;fontColor=#FFFFFF;" parent="1" source="ZLCHrO8xHaeZ08uBN5op-59" target="ZLCHrO8xHaeZ08uBN5op-68" edge="1">
          <mxGeometry relative="1" as="geometry" />
        </mxCell>
        <mxCell id="ZLCHrO8xHaeZ08uBN5op-59" value="Onramp" style="ellipse;whiteSpace=wrap;html=1;rounded=1;fillColor=#000000;strokeColor=#000000;fontColor=#FFFFFF;" parent="1" vertex="1">
          <mxGeometry x="845" y="732" width="80" height="80" as="geometry" />
        </mxCell>
        <mxCell id="ZLCHrO8xHaeZ08uBN5op-83" value="" style="edgeStyle=orthogonalEdgeStyle;rounded=0;orthogonalLoop=1;jettySize=auto;html=1;fillColor=#dae8fc;strokeColor=#000000;fontColor=#FFFFFF;" parent="1" source="ZLCHrO8xHaeZ08uBN5op-61" target="ZLCHrO8xHaeZ08uBN5op-75" edge="1">
          <mxGeometry relative="1" as="geometry" />
        </mxCell>
        <mxCell id="ZLCHrO8xHaeZ08uBN5op-86" value="" style="edgeStyle=orthogonalEdgeStyle;rounded=0;orthogonalLoop=1;jettySize=auto;html=1;entryX=0.5;entryY=1;entryDx=0;entryDy=0;fillColor=#dae8fc;strokeColor=#000000;fontColor=#FFFFFF;" parent="1" source="ZLCHrO8xHaeZ08uBN5op-61" target="ZLCHrO8xHaeZ08uBN5op-27" edge="1">
          <mxGeometry relative="1" as="geometry" />
        </mxCell>
        <mxCell id="hz83JMnrtP8EATLdROOb-2" style="edgeStyle=orthogonalEdgeStyle;rounded=0;orthogonalLoop=1;jettySize=auto;html=1;entryX=0;entryY=0.5;entryDx=0;entryDy=0;" edge="1" parent="1" source="ZLCHrO8xHaeZ08uBN5op-61" target="hz83JMnrtP8EATLdROOb-1">
          <mxGeometry relative="1" as="geometry" />
        </mxCell>
        <mxCell id="ZLCHrO8xHaeZ08uBN5op-61" value="Inapp Native tokens/ credits" style="rounded=1;whiteSpace=wrap;html=1;fillColor=#000000;strokeColor=#000000;fontColor=#FFFFFF;" parent="1" vertex="1">
          <mxGeometry x="825" y="902" width="120" height="60" as="geometry" />
        </mxCell>
        <mxCell id="ZLCHrO8xHaeZ08uBN5op-67" value="" style="edgeStyle=orthogonalEdgeStyle;rounded=0;orthogonalLoop=1;jettySize=auto;html=1;entryX=0;entryY=0.5;entryDx=0;entryDy=0;startArrow=classic;startFill=1;fillColor=#dae8fc;strokeColor=#000000;fontColor=#FFFFFF;" parent="1" source="ZLCHrO8xHaeZ08uBN5op-63" target="ZLCHrO8xHaeZ08uBN5op-65" edge="1">
          <mxGeometry relative="1" as="geometry" />
        </mxCell>
        <mxCell id="ZLCHrO8xHaeZ08uBN5op-96" value="" style="edgeStyle=orthogonalEdgeStyle;rounded=0;orthogonalLoop=1;jettySize=auto;html=1;fillColor=#dae8fc;strokeColor=#000000;fontColor=#FFFFFF;" parent="1" source="ZLCHrO8xHaeZ08uBN5op-63" target="ZLCHrO8xHaeZ08uBN5op-95" edge="1">
          <mxGeometry relative="1" as="geometry" />
        </mxCell>
        <mxCell id="ZLCHrO8xHaeZ08uBN5op-63" value="Gas Relayer Solana" style="rounded=0;whiteSpace=wrap;html=1;fillColor=#000000;strokeColor=#000000;fontColor=#FFFFFF;" parent="1" vertex="1">
          <mxGeometry x="810" y="430" width="150" height="40" as="geometry" />
        </mxCell>
        <mxCell id="ZLCHrO8xHaeZ08uBN5op-85" value="" style="edgeStyle=orthogonalEdgeStyle;rounded=0;orthogonalLoop=1;jettySize=auto;html=1;fillColor=#dae8fc;strokeColor=#000000;fontColor=#FFFFFF;" parent="1" source="ZLCHrO8xHaeZ08uBN5op-65" target="ZLCHrO8xHaeZ08uBN5op-76" edge="1">
          <mxGeometry relative="1" as="geometry">
            <Array as="points">
              <mxPoint x="1299" y="430" />
            </Array>
          </mxGeometry>
        </mxCell>
        <mxCell id="ZLCHrO8xHaeZ08uBN5op-94" value="" style="edgeStyle=orthogonalEdgeStyle;rounded=0;orthogonalLoop=1;jettySize=auto;html=1;fillColor=#dae8fc;strokeColor=#000000;fontColor=#FFFFFF;" parent="1" source="ZLCHrO8xHaeZ08uBN5op-65" target="ZLCHrO8xHaeZ08uBN5op-93" edge="1">
          <mxGeometry relative="1" as="geometry" />
        </mxCell>
        <mxCell id="ZLCHrO8xHaeZ08uBN5op-97" value="" style="edgeStyle=orthogonalEdgeStyle;rounded=0;orthogonalLoop=1;jettySize=auto;html=1;entryX=1;entryY=0.5;entryDx=0;entryDy=0;fillColor=#dae8fc;strokeColor=#000000;fontColor=#FFFFFF;" parent="1" source="ZLCHrO8xHaeZ08uBN5op-65" target="ZLCHrO8xHaeZ08uBN5op-95" edge="1">
          <mxGeometry relative="1" as="geometry" />
        </mxCell>
        <mxCell id="ZLCHrO8xHaeZ08uBN5op-65" value="Relayer" style="rounded=1;whiteSpace=wrap;html=1;fillColor=#000000;strokeColor=#000000;fontColor=#FFFFFF;" parent="1" vertex="1">
          <mxGeometry x="1010" y="400" width="120" height="60" as="geometry" />
        </mxCell>
        <mxCell id="ZLCHrO8xHaeZ08uBN5op-105" value="" style="edgeStyle=orthogonalEdgeStyle;rounded=0;orthogonalLoop=1;jettySize=auto;html=1;entryX=0.5;entryY=1;entryDx=0;entryDy=0;fillColor=#dae8fc;strokeColor=#000000;fontColor=#FFFFFF;" parent="1" source="ZLCHrO8xHaeZ08uBN5op-68" target="ZLCHrO8xHaeZ08uBN5op-71" edge="1">
          <mxGeometry relative="1" as="geometry" />
        </mxCell>
        <mxCell id="ZLCHrO8xHaeZ08uBN5op-68" value="L1" style="whiteSpace=wrap;html=1;rounded=1;fillColor=#000000;strokeColor=#000000;fontColor=#FFFFFF;" parent="1" vertex="1">
          <mxGeometry x="1010" y="753" width="120" height="38" as="geometry" />
        </mxCell>
        <mxCell id="ZLCHrO8xHaeZ08uBN5op-74" value="" style="edgeStyle=orthogonalEdgeStyle;rounded=0;orthogonalLoop=1;jettySize=auto;html=1;fillColor=#dae8fc;strokeColor=#000000;fontColor=#FFFFFF;" parent="1" source="ZLCHrO8xHaeZ08uBN5op-70" target="ZLCHrO8xHaeZ08uBN5op-65" edge="1">
          <mxGeometry relative="1" as="geometry" />
        </mxCell>
        <mxCell id="ZLCHrO8xHaeZ08uBN5op-70" value="L2" style="whiteSpace=wrap;html=1;rounded=1;fillColor=#000000;strokeColor=#000000;fontColor=#FFFFFF;" parent="1" vertex="1">
          <mxGeometry x="1010" y="480" width="120" height="38" as="geometry" />
        </mxCell>
        <mxCell id="ZLCHrO8xHaeZ08uBN5op-73" value="" style="edgeStyle=orthogonalEdgeStyle;rounded=0;orthogonalLoop=1;jettySize=auto;html=1;fillColor=#dae8fc;strokeColor=#000000;fontColor=#FFFFFF;" parent="1" source="ZLCHrO8xHaeZ08uBN5op-71" target="ZLCHrO8xHaeZ08uBN5op-70" edge="1">
          <mxGeometry relative="1" as="geometry" />
        </mxCell>
        <mxCell id="ZLCHrO8xHaeZ08uBN5op-71" value="Bridge" style="rounded=1;whiteSpace=wrap;html=1;fillColor=#000000;strokeColor=#000000;fontColor=#FFFFFF;" parent="1" vertex="1">
          <mxGeometry x="1010" y="532" width="120" height="60" as="geometry" />
        </mxCell>
        <mxCell id="ZLCHrO8xHaeZ08uBN5op-84" value="" style="edgeStyle=orthogonalEdgeStyle;rounded=0;orthogonalLoop=1;jettySize=auto;html=1;fillColor=#dae8fc;strokeColor=#000000;fontColor=#FFFFFF;" parent="1" source="ZLCHrO8xHaeZ08uBN5op-75" target="ZLCHrO8xHaeZ08uBN5op-76" edge="1">
          <mxGeometry relative="1" as="geometry" />
        </mxCell>
        <mxCell id="ZLCHrO8xHaeZ08uBN5op-107" value="" style="edgeStyle=orthogonalEdgeStyle;rounded=0;orthogonalLoop=1;jettySize=auto;html=1;fillColor=#dae8fc;strokeColor=#000000;fontColor=#FFFFFF;" parent="1" source="ZLCHrO8xHaeZ08uBN5op-75" target="ZLCHrO8xHaeZ08uBN5op-106" edge="1">
          <mxGeometry relative="1" as="geometry" />
        </mxCell>
        <mxCell id="ZLCHrO8xHaeZ08uBN5op-75" value="Swap" style="rounded=1;whiteSpace=wrap;html=1;fillColor=#000000;strokeColor=#000000;fontColor=#FFFFFF;" parent="1" vertex="1">
          <mxGeometry x="1010" y="933" width="120" height="45" as="geometry" />
        </mxCell>
        <mxCell id="ZLCHrO8xHaeZ08uBN5op-76" value="Aggregator" style="rounded=1;whiteSpace=wrap;html=1;fillColor=#000000;strokeColor=#000000;fontColor=#FFFFFF;" parent="1" vertex="1">
          <mxGeometry x="1239" y="902" width="120" height="60" as="geometry" />
        </mxCell>
        <mxCell id="ZLCHrO8xHaeZ08uBN5op-81" value="" style="edgeStyle=orthogonalEdgeStyle;rounded=0;orthogonalLoop=1;jettySize=auto;html=1;fillColor=#dae8fc;strokeColor=#000000;fontColor=#FFFFFF;" parent="1" source="ZLCHrO8xHaeZ08uBN5op-77" target="ZLCHrO8xHaeZ08uBN5op-76" edge="1">
          <mxGeometry relative="1" as="geometry" />
        </mxCell>
        <mxCell id="ZLCHrO8xHaeZ08uBN5op-77" value="Jupiter" style="whiteSpace=wrap;html=1;rounded=1;fillColor=#000000;strokeColor=#000000;fontColor=#FFFFFF;" parent="1" vertex="1">
          <mxGeometry x="1399" y="902" width="120" height="28" as="geometry" />
        </mxCell>
        <mxCell id="ZLCHrO8xHaeZ08uBN5op-82" value="" style="edgeStyle=orthogonalEdgeStyle;rounded=0;orthogonalLoop=1;jettySize=auto;html=1;fillColor=#dae8fc;strokeColor=#000000;fontColor=#FFFFFF;" parent="1" source="ZLCHrO8xHaeZ08uBN5op-78" target="ZLCHrO8xHaeZ08uBN5op-76" edge="1">
          <mxGeometry relative="1" as="geometry" />
        </mxCell>
        <mxCell id="ZLCHrO8xHaeZ08uBN5op-78" value="Sushi X" style="whiteSpace=wrap;html=1;rounded=1;fillColor=#000000;strokeColor=#000000;fontColor=#FFFFFF;" parent="1" vertex="1">
          <mxGeometry x="1399" y="934" width="120" height="28" as="geometry" />
        </mxCell>
        <mxCell id="ZLCHrO8xHaeZ08uBN5op-92" value="" style="edgeStyle=orthogonalEdgeStyle;rounded=0;orthogonalLoop=1;jettySize=auto;html=1;fillColor=#dae8fc;strokeColor=#000000;fontColor=#FFFFFF;" parent="1" source="ZLCHrO8xHaeZ08uBN5op-90" target="ZLCHrO8xHaeZ08uBN5op-71" edge="1">
          <mxGeometry relative="1" as="geometry" />
        </mxCell>
        <mxCell id="ZLCHrO8xHaeZ08uBN5op-90" value="Wormhole" style="whiteSpace=wrap;html=1;rounded=1;fillColor=#000000;strokeColor=#000000;fontColor=#FFFFFF;" parent="1" vertex="1">
          <mxGeometry x="825" y="543" width="120" height="38" as="geometry" />
        </mxCell>
        <mxCell id="hz83JMnrtP8EATLdROOb-13" value="" style="edgeStyle=orthogonalEdgeStyle;rounded=0;orthogonalLoop=1;jettySize=auto;html=1;" edge="1" parent="1" source="ZLCHrO8xHaeZ08uBN5op-93" target="hz83JMnrtP8EATLdROOb-12">
          <mxGeometry relative="1" as="geometry" />
        </mxCell>
        <mxCell id="hz83JMnrtP8EATLdROOb-14" value="" style="edgeStyle=orthogonalEdgeStyle;rounded=0;orthogonalLoop=1;jettySize=auto;html=1;" edge="1" parent="1" source="ZLCHrO8xHaeZ08uBN5op-93" target="hz83JMnrtP8EATLdROOb-10">
          <mxGeometry relative="1" as="geometry" />
        </mxCell>
        <mxCell id="hz83JMnrtP8EATLdROOb-15" value="" style="edgeStyle=orthogonalEdgeStyle;rounded=0;orthogonalLoop=1;jettySize=auto;html=1;" edge="1" parent="1" source="ZLCHrO8xHaeZ08uBN5op-93" target="hz83JMnrtP8EATLdROOb-11">
          <mxGeometry relative="1" as="geometry" />
        </mxCell>
        <mxCell id="ZLCHrO8xHaeZ08uBN5op-93" value="Chain nodes" style="whiteSpace=wrap;html=1;aspect=fixed;fillColor=#000000;strokeColor=#000000;fontColor=#FFFFFF;" parent="1" vertex="1">
          <mxGeometry x="1030" y="190" width="80" height="80" as="geometry" />
        </mxCell>
        <mxCell id="ZLCHrO8xHaeZ08uBN5op-95" value="Gas Relayer BTC" style="rounded=0;whiteSpace=wrap;html=1;fillColor=#000000;strokeColor=#000000;fontColor=#FFFFFF;" parent="1" vertex="1">
          <mxGeometry x="810" y="490" width="150" height="40" as="geometry" />
        </mxCell>
        <mxCell id="ZLCHrO8xHaeZ08uBN5op-100" value="" style="edgeStyle=orthogonalEdgeStyle;rounded=0;orthogonalLoop=1;jettySize=auto;html=1;entryX=0;entryY=0.5;entryDx=0;entryDy=0;fillColor=#dae8fc;strokeColor=#000000;fontColor=#FFFFFF;" parent="1" source="ZLCHrO8xHaeZ08uBN5op-98" target="ZLCHrO8xHaeZ08uBN5op-35" edge="1">
          <mxGeometry relative="1" as="geometry" />
        </mxCell>
        <mxCell id="ZLCHrO8xHaeZ08uBN5op-98" value="BTC" style="shape=process;whiteSpace=wrap;html=1;backgroundOutline=1;fillColor=#000000;strokeColor=#000000;fontColor=#FFFFFF;" parent="1" vertex="1">
          <mxGeometry x="465" y="224" width="120" height="40" as="geometry" />
        </mxCell>
        <mxCell id="ZLCHrO8xHaeZ08uBN5op-101" value="Unstoppable domains" style="whiteSpace=wrap;html=1;rounded=1;fillColor=#000000;strokeColor=#000000;fontColor=#FFFFFF;" parent="1" vertex="1">
          <mxGeometry x="465" y="500" width="130" height="38" as="geometry" />
        </mxCell>
        <mxCell id="ZLCHrO8xHaeZ08uBN5op-104" value="" style="edgeStyle=orthogonalEdgeStyle;rounded=0;orthogonalLoop=1;jettySize=auto;html=1;fillColor=#dae8fc;strokeColor=#000000;fontColor=#FFFFFF;" parent="1" source="ZLCHrO8xHaeZ08uBN5op-103" target="ZLCHrO8xHaeZ08uBN5op-59" edge="1">
          <mxGeometry relative="1" as="geometry" />
        </mxCell>
        <mxCell id="hz83JMnrtP8EATLdROOb-6" value="" style="edgeStyle=orthogonalEdgeStyle;rounded=0;orthogonalLoop=1;jettySize=auto;html=1;" edge="1" parent="1" source="ZLCHrO8xHaeZ08uBN5op-103" target="hz83JMnrtP8EATLdROOb-5">
          <mxGeometry relative="1" as="geometry" />
        </mxCell>
        <mxCell id="ZLCHrO8xHaeZ08uBN5op-103" value="Ramp Network" style="whiteSpace=wrap;html=1;rounded=1;fillColor=#000000;strokeColor=#000000;fontColor=#FFFFFF;" parent="1" vertex="1">
          <mxGeometry x="825" y="670" width="120" height="38" as="geometry" />
        </mxCell>
        <mxCell id="ZLCHrO8xHaeZ08uBN5op-106" value="AI Trade Bot" style="rounded=1;whiteSpace=wrap;html=1;fillColor=#000000;strokeColor=#000000;fontColor=#FFFFFF;" parent="1" vertex="1">
          <mxGeometry x="1010" y="1021" width="120" height="60" as="geometry" />
        </mxCell>
        <mxCell id="ZLCHrO8xHaeZ08uBN5op-108" value="Passkey / magic link" style="rounded=1;whiteSpace=wrap;html=1;fillColor=#000000;strokeColor=#000000;fontColor=#FFFFFF;" parent="1" vertex="1">
          <mxGeometry x="280" y="310" width="120" height="40" as="geometry" />
        </mxCell>
        <mxCell id="ZLCHrO8xHaeZ08uBN5op-109" value="voice call / IVR" style="rounded=1;whiteSpace=wrap;html=1;fillColor=#000000;strokeColor=#000000;fontColor=#FFFFFF;" parent="1" vertex="1">
          <mxGeometry x="280" y="510" width="120" height="40" as="geometry" />
        </mxCell>
        <mxCell id="ZLCHrO8xHaeZ08uBN5op-110" value="DEFI ATM / kiosk" style="rounded=1;whiteSpace=wrap;html=1;fillColor=#000000;strokeColor=#000000;fontColor=#FFFFFF;" parent="1" vertex="1">
          <mxGeometry x="280" y="560" width="120" height="40" as="geometry" />
        </mxCell>
        <mxCell id="ZLCHrO8xHaeZ08uBN5op-111" value="AI Trade Bot" style="rounded=1;whiteSpace=wrap;html=1;fillColor=#000000;strokeColor=#000000;fontColor=#FFFFFF;" parent="1" vertex="1">
          <mxGeometry x="280" y="210" width="120" height="40" as="geometry" />
        </mxCell>
        <mxCell id="ZLCHrO8xHaeZ08uBN5op-112" value="Magic link / Web3auth" style="rounded=1;whiteSpace=wrap;html=1;fillColor=#000000;strokeColor=#000000;fontColor=#FFFFFF;" parent="1" vertex="1">
          <mxGeometry x="265" y="260" width="150" height="40" as="geometry" />
        </mxCell>
        <mxCell id="ZLCHrO8xHaeZ08uBN5op-118" value="" style="edgeStyle=orthogonalEdgeStyle;rounded=0;orthogonalLoop=1;jettySize=auto;html=1;fillColor=#dae8fc;strokeColor=#000000;fontColor=#FFFFFF;" parent="1" source="ZLCHrO8xHaeZ08uBN5op-113" target="ZLCHrO8xHaeZ08uBN5op-1" edge="1">
          <mxGeometry relative="1" as="geometry" />
        </mxCell>
        <mxCell id="ZLCHrO8xHaeZ08uBN5op-113" value="React native App" style="rounded=1;whiteSpace=wrap;html=1;fillColor=#000000;strokeColor=#000000;fontColor=#FFFFFF;" parent="1" vertex="1">
          <mxGeometry x="-100" y="325" width="120" height="40" as="geometry" />
        </mxCell>
        <mxCell id="ZLCHrO8xHaeZ08uBN5op-119" value="" style="edgeStyle=orthogonalEdgeStyle;rounded=0;orthogonalLoop=1;jettySize=auto;html=1;fillColor=#dae8fc;strokeColor=#000000;fontColor=#FFFFFF;" parent="1" source="ZLCHrO8xHaeZ08uBN5op-115" target="ZLCHrO8xHaeZ08uBN5op-1" edge="1">
          <mxGeometry relative="1" as="geometry" />
        </mxCell>
        <mxCell id="ZLCHrO8xHaeZ08uBN5op-115" value="Web App" style="rounded=1;whiteSpace=wrap;html=1;fillColor=#000000;strokeColor=#000000;fontColor=#FFFFFF;" parent="1" vertex="1">
          <mxGeometry x="-100" y="498" width="120" height="40" as="geometry" />
        </mxCell>
        <mxCell id="ZLCHrO8xHaeZ08uBN5op-117" value="" style="edgeStyle=orthogonalEdgeStyle;rounded=0;orthogonalLoop=1;jettySize=auto;html=1;fillColor=#dae8fc;strokeColor=#000000;fontColor=#FFFFFF;" parent="1" source="ZLCHrO8xHaeZ08uBN5op-116" target="ZLCHrO8xHaeZ08uBN5op-1" edge="1">
          <mxGeometry relative="1" as="geometry" />
        </mxCell>
        <mxCell id="ZLCHrO8xHaeZ08uBN5op-116" value="Browser extension" style="rounded=1;whiteSpace=wrap;html=1;fillColor=#000000;strokeColor=#000000;fontColor=#FFFFFF;" parent="1" vertex="1">
          <mxGeometry x="-270" y="410" width="120" height="40" as="geometry" />
        </mxCell>
        <mxCell id="ZLCHrO8xHaeZ08uBN5op-120" value="Twiiter / Meta BOT" style="rounded=1;whiteSpace=wrap;html=1;fillColor=#000000;strokeColor=#000000;fontColor=#FFFFFF;" parent="1" vertex="1">
          <mxGeometry x="280" y="610" width="120" height="40" as="geometry" />
        </mxCell>
        <mxCell id="ZLCHrO8xHaeZ08uBN5op-124" value="" style="edgeStyle=orthogonalEdgeStyle;rounded=0;orthogonalLoop=1;jettySize=auto;html=1;entryX=0;entryY=0.5;entryDx=0;entryDy=0;fillColor=#dae8fc;strokeColor=#000000;fontColor=#FFFFFF;" parent="1" source="ZLCHrO8xHaeZ08uBN5op-121" target="ZLCHrO8xHaeZ08uBN5op-4" edge="1">
          <mxGeometry relative="1" as="geometry" />
        </mxCell>
        <mxCell id="ZLCHrO8xHaeZ08uBN5op-121" value="Integrations" style="rounded=0;whiteSpace=wrap;html=1;fillColor=#000000;strokeColor=#000000;fontColor=#FFFFFF;" parent="1" vertex="1">
          <mxGeometry x="90" y="400" width="120" height="60" as="geometry" />
        </mxCell>
        <mxCell id="hz83JMnrtP8EATLdROOb-3" style="edgeStyle=orthogonalEdgeStyle;rounded=0;orthogonalLoop=1;jettySize=auto;html=1;" edge="1" parent="1" source="hz83JMnrtP8EATLdROOb-1" target="ZLCHrO8xHaeZ08uBN5op-76">
          <mxGeometry relative="1" as="geometry" />
        </mxCell>
        <mxCell id="hz83JMnrtP8EATLdROOb-1" value="Buy" style="rounded=1;whiteSpace=wrap;html=1;fillColor=#000000;strokeColor=#000000;fontColor=#FFFFFF;" vertex="1" parent="1">
          <mxGeometry x="1010" y="888" width="120" height="40" as="geometry" />
        </mxCell>
        <mxCell id="hz83JMnrtP8EATLdROOb-5" value="Relayer Account" style="whiteSpace=wrap;html=1;rounded=1;fillColor=#000000;strokeColor=#000000;fontColor=#FFFFFF;" vertex="1" parent="1">
          <mxGeometry x="825" y="620" width="120" height="38" as="geometry" />
        </mxCell>
        <mxCell id="hz83JMnrtP8EATLdROOb-8" value="" style="edgeStyle=orthogonalEdgeStyle;rounded=0;orthogonalLoop=1;jettySize=auto;html=1;" edge="1" parent="1" source="hz83JMnrtP8EATLdROOb-7" target="ZLCHrO8xHaeZ08uBN5op-71">
          <mxGeometry relative="1" as="geometry" />
        </mxCell>
        <mxCell id="hz83JMnrtP8EATLdROOb-7" value="Radiant" style="whiteSpace=wrap;html=1;rounded=1;fillColor=#000000;strokeColor=#000000;fontColor=#FFFFFF;" vertex="1" parent="1">
          <mxGeometry x="1170" y="543" width="120" height="38" as="geometry" />
        </mxCell>
        <mxCell id="hz83JMnrtP8EATLdROOb-10" value="Shyft&amp;nbsp;" style="whiteSpace=wrap;html=1;fillColor=#000000;strokeColor=#000000;fontColor=#FFFFFF;" vertex="1" parent="1">
          <mxGeometry x="1190" y="200" width="120" height="60" as="geometry" />
        </mxCell>
        <mxCell id="hz83JMnrtP8EATLdROOb-11" value="Alchemy" style="whiteSpace=wrap;html=1;fillColor=#000000;strokeColor=#000000;fontColor=#FFFFFF;" vertex="1" parent="1">
          <mxGeometry x="825" y="200" width="120" height="60" as="geometry" />
        </mxCell>
        <mxCell id="hz83JMnrtP8EATLdROOb-12" value="Quicknode" style="whiteSpace=wrap;html=1;fillColor=#000000;strokeColor=#000000;fontColor=#FFFFFF;" vertex="1" parent="1">
          <mxGeometry x="1010" y="70" width="120" height="60" as="geometry" />
        </mxCell>
      </root>
    </mxGraphModel>
  </diagram>
</mxfile>
